<?xml version="1.0" encoding="utf-8" standalone="no"?>
<!DOCTYPE svg PUBLIC "-//W3C//DTD SVG 1.1//EN"
  "http://www.w3.org/Graphics/SVG/1.1/DTD/svg11.dtd">
<svg xmlns:xlink="http://www.w3.org/1999/xlink" width="928.8pt" height="574.141128pt" viewBox="0 0 928.8 574.141128" xmlns="http://www.w3.org/2000/svg" version="1.1">
 <metadata>
  <rdf:RDF xmlns:dc="http://purl.org/dc/elements/1.1/" xmlns:cc="http://creativecommons.org/ns#" xmlns:rdf="http://www.w3.org/1999/02/22-rdf-syntax-ns#">
   <cc:Work>
    <dc:type rdf:resource="http://purl.org/dc/dcmitype/StillImage"/>
    <dc:date>2026-06-15T16:46:31.640744</dc:date>
    <dc:format>image/svg+xml</dc:format>
    <dc:creator>
     <cc:Agent>
      <dc:title>Matplotlib v3.11.0, https://matplotlib.org/</dc:title>
     </cc:Agent>
    </dc:creator>
   </cc:Work>
  </rdf:RDF>
 </metadata>
 <defs>
  <style type="text/css">*{stroke-linejoin: round; stroke-linecap: butt}</style>
 </defs>
 <g id="figure_1">
  <g id="patch_1">
   <path d="M 0 574.141128 
L 928.8 574.141128 
L 928.8 0 
L 0 0 
z
" style="fill: #ffffff"/>
  </g>
  <g id="axes_1">
   <g id="patch_2">
    <path d="M 128.580343 95.184671 
Q 148.171092 95.184671 165.525774 95.184671 
" clip-path="url(#p3a3dd55189)" style="fill: none; stroke: #2563eb; stroke-width: 2; stroke-linecap: round"/>
    <path d="M 159.125774 91.984671 
L 165.525774 95.184671 
L 159.125774 98.384671 
z
" clip-path="url(#p3a3dd55189)" style="fill: #2563eb; stroke: #2563eb; stroke-width: 2; stroke-linecap: round"/>
   </g>
   <g id="patch_3">
    <path d="M 293.678018 95.184671 
Q 306.919427 95.184671 317.924769 95.184671 
" clip-path="url(#p3a3dd55189)" style="fill: none; stroke: #2563eb; stroke-width: 2; stroke-linecap: round"/>
    <path d="M 311.524769 91.984671 
L 317.924769 95.184671 
L 311.524769 98.384671 
z
" clip-path="url(#p3a3dd55189)" style="fill: #2563eb; stroke: #2563eb; stroke-width: 2; stroke-linecap: round"/>
   </g>
   <g id="patch_4">
    <path d="M 446.078018 95.184671 
Q 459.319427 95.184671 470.324769 95.184671 
" clip-path="url(#p3a3dd55189)" style="fill: none; stroke: #2563eb; stroke-width: 2; stroke-linecap: round"/>
    <path d="M 463.924769 91.984671 
L 470.324769 95.184671 
L 463.924769 98.384671 
z
" clip-path="url(#p3a3dd55189)" style="fill: #2563eb; stroke: #2563eb; stroke-width: 2; stroke-linecap: round"/>
   </g>
   <g id="patch_5">
    <path d="M 598.478018 95.184671 
Q 611.719427 95.184671 622.724769 95.184671 
" clip-path="url(#p3a3dd55189)" style="fill: none; stroke: #2563eb; stroke-width: 2; stroke-linecap: round"/>
    <path d="M 616.324769 91.984671 
L 622.724769 95.184671 
L 616.324769 98.384671 
z
" clip-path="url(#p3a3dd55189)" style="fill: #2563eb; stroke: #2563eb; stroke-width: 2; stroke-linecap: round"/>
   </g>
   <g id="patch_6">
    <path d="M 750.641651 96.13401 
Q 804.511775 125.467892 833.192006 177.145791 
" clip-path="url(#p3a3dd55189)" style="fill: none; stroke: #2563eb; stroke-width: 2; stroke-linecap: round"/>
    <path d="M 832.884336 169.996991 
L 833.192006 177.145791 
L 827.288364 173.102647 
z
" clip-path="url(#p3a3dd55189)" style="fill: #2563eb; stroke: #2563eb; stroke-width: 2; stroke-linecap: round"/>
   </g>
   <g id="patch_7">
    <path d="M 835.24 224.530018 
Q 835.24 273.467678 835.24 320.16927 
" clip-path="url(#p3a3dd55189)" style="fill: none; stroke: #2563eb; stroke-width: 2; stroke-linecap: round"/>
    <path d="M 838.44 313.76927 
L 835.24 320.16927 
L 832.04 313.76927 
z
" clip-path="url(#p3a3dd55189)" style="fill: #2563eb; stroke: #2563eb; stroke-width: 2; stroke-linecap: round"/>
   </g>
   <g id="patch_8">
    <path d="M 769.209148 347.244378 
Q 769.266348 400.226615 750.457112 447.358107 
" clip-path="url(#p3a3dd55189)" style="fill: none; stroke: #d97706; stroke-width: 2; stroke-linecap: round"/>
    <path d="M 755.801365 442.600065 
L 750.457112 447.358107 
L 749.85723 440.227879 
z
" clip-path="url(#p3a3dd55189)" style="fill: #d97706; stroke: #d97706; stroke-width: 2; stroke-linecap: round"/>
   </g>
   <g id="patch_9">
    <path d="M 624.961982 447.123357 
Q 611.720573 447.123357 600.715231 447.123357 
" clip-path="url(#p3a3dd55189)" style="fill: none; stroke: #d97706; stroke-width: 2; stroke-linecap: round"/>
    <path d="M 607.115231 450.323357 
L 600.715231 447.123357 
L 607.115231 443.923357 
z
" clip-path="url(#p3a3dd55189)" style="fill: #d97706; stroke: #d97706; stroke-width: 2; stroke-linecap: round"/>
   </g>
   <g id="patch_10">
    <path d="M 472.561982 447.123357 
Q 459.320573 447.123357 448.315231 447.123357 
" clip-path="url(#p3a3dd55189)" style="fill: none; stroke: #d97706; stroke-width: 2; stroke-linecap: round"/>
    <path d="M 454.715231 450.323357 
L 448.315231 447.123357 
L 454.715231 443.923357 
z
" clip-path="url(#p3a3dd55189)" style="fill: #d97706; stroke: #d97706; stroke-width: 2; stroke-linecap: round"/>
   </g>
   <g id="patch_11">
    <path d="M 385.072756 425.855839 
Q 634.127452 370.657404 669.050661 120.218521 
" clip-path="url(#p3a3dd55189)" style="fill: none; stroke: #d97706; stroke-width: 2; stroke-linecap: round"/>
    <path d="M 664.997413 126.11523 
L 669.050661 120.218521 
L 671.336079 126.999145 
z
" clip-path="url(#p3a3dd55189)" style="fill: #d97706; stroke: #d97706; stroke-width: 2; stroke-linecap: round"/>
   </g>
   <g id="patch_12">
    <path d="M 749.843454 96.938642 
Q 779.608972 150.571476 831.515508 178.835805 
" clip-path="url(#p3a3dd55189)" style="fill: none; stroke-dasharray: 8,6; stroke-dashoffset: 0; stroke: #d97706; stroke-width: 2; stroke-linecap: round"/>
    <path d="M 827.425088 172.964821 
L 831.515508 178.835805 
L 824.364468 178.585551 
z
" clip-path="url(#p3a3dd55189)" style="fill: #d97706; stroke-dasharray: 8,6; stroke-dashoffset: 0; stroke: #d97706; stroke-width: 2; stroke-linecap: round"/>
   </g>
   <g id="patch_13">
    <path d="M 834.675353 224.449183 
Q 820.523169 273.469157 834.05499 320.3408 
" clip-path="url(#p3a3dd55189)" style="fill: none; stroke-dasharray: 8,6; stroke-dashoffset: 0; stroke: #d97706; stroke-width: 2; stroke-linecap: round"/>
    <path d="M 835.354252 313.304329 
L 834.05499 320.3408 
L 829.205371 315.079509 
z
" clip-path="url(#p3a3dd55189)" style="fill: #d97706; stroke-dasharray: 8,6; stroke-dashoffset: 0; stroke: #d97706; stroke-width: 2; stroke-linecap: round"/>
   </g>
   <g id="patch_14">
    <path d="M 381.236022 467.283919 
Q 325.206586 447.122848 270.544752 427.45388 
" clip-path="url(#p3a3dd55189)" style="fill: none; stroke-dasharray: 4.81,2.08; stroke-dashoffset: 0; stroke: #94a3b8; stroke-width: 1.3; stroke-linecap: round"/>
    <path d="M 275.483309 432.631781 
L 270.544752 427.45388 
L 277.650207 426.609776 
z
" clip-path="url(#p3a3dd55189)" style="fill: #94a3b8; stroke-dasharray: 4.81,2.08; stroke-dashoffset: 0; stroke: #94a3b8; stroke-width: 1.3; stroke-linecap: round"/>
   </g>
   <g id="patch_15">
    <path d="M 496.989345 468.394718 
Q 388.758879 492.015815 294.647944 436.381886 
" clip-path="url(#p3a3dd55189)" style="fill: none; stroke-dasharray: 4.81,2.08; stroke-dashoffset: 0; stroke: #94a3b8; stroke-width: 1.3; stroke-linecap: round"/>
    <path d="M 298.528855 442.393419 
L 294.647944 436.381886 
L 301.785717 436.884077 
z
" clip-path="url(#p3a3dd55189)" style="fill: #94a3b8; stroke-dasharray: 4.81,2.08; stroke-dashoffset: 0; stroke: #94a3b8; stroke-width: 1.3; stroke-linecap: round"/>
   </g>
   <g id="patch_16">
    <path d="M 649.659525 469.036894 
Q 466.454651 585.408132 294.434983 455.461467 
" clip-path="url(#p3a3dd55189)" style="fill: none; stroke-dasharray: 4.81,2.08; stroke-dashoffset: 0; stroke: #94a3b8; stroke-width: 1.3; stroke-linecap: round"/>
    <path d="M 297.612831 461.872495 
L 294.434983 455.461467 
L 301.470514 456.765805 
z
" clip-path="url(#p3a3dd55189)" style="fill: #94a3b8; stroke-dasharray: 4.81,2.08; stroke-dashoffset: 0; stroke: #94a3b8; stroke-width: 1.3; stroke-linecap: round"/>
   </g>
   <g id="patch_17">
    <path d="M 901.463504 203.686236 
Q 912.470009 326.988655 837.365384 423.560949 
" clip-path="url(#p3a3dd55189)" style="fill: none; stroke-dasharray: 4.81,2.08; stroke-dashoffset: 0; stroke: #94a3b8; stroke-width: 1.3; stroke-linecap: round"/>
    <path d="M 843.820388 420.473407 
L 837.365384 423.560949 
L 838.768353 416.54442 
z
" clip-path="url(#p3a3dd55189)" style="fill: #94a3b8; stroke-dasharray: 4.81,2.08; stroke-dashoffset: 0; stroke: #94a3b8; stroke-width: 1.3; stroke-linecap: round"/>
   </g>
   <g id="patch_18">
    <path d="M 439.696547 50.801798 
Q 412.331993 62.18959 386.309326 73.018955 
" clip-path="url(#p3a3dd55189)" style="fill: none; stroke-dasharray: 4.81,2.08; stroke-dashoffset: 0; stroke: #94a3b8; stroke-width: 1.3; stroke-linecap: round"/>
    <path d="M 393.447571 73.514398 
L 386.309326 73.018955 
L 390.988627 67.605625 
z
" clip-path="url(#p3a3dd55189)" style="fill: #94a3b8; stroke-dasharray: 4.81,2.08; stroke-dashoffset: 0; stroke: #94a3b8; stroke-width: 1.3; stroke-linecap: round"/>
   </g>
   <g id="patch_19">
    <path d="M 407.604481 38.039279 
Q 268.034405 310.666249 550.608955 424.994052 
" clip-path="url(#p3a3dd55189)" style="fill: none; stroke-dasharray: 4.81,2.08; stroke-dashoffset: 0; stroke: #94a3b8; stroke-width: 1.3; stroke-linecap: round"/>
    <path d="M 545.876335 419.627274 
L 550.608955 424.994052 
L 543.475961 425.560081 
z
" clip-path="url(#p3a3dd55189)" style="fill: #94a3b8; stroke-dasharray: 4.81,2.08; stroke-dashoffset: 0; stroke: #94a3b8; stroke-width: 1.3; stroke-linecap: round"/>
   </g>
   <g id="patch_20">
    <path d="M 32.092 119.727764 
L 124.548 119.727764 
Q 130.644 119.727764 130.644 114.170837 
L 130.644 76.198505 
Q 130.644 70.641579 124.548 70.641579 
L 32.092 70.641579 
Q 25.996 70.641579 25.996 76.198505 
L 25.996 114.170837 
Q 25.996 119.727764 32.092 119.727764 
z
" clip-path="url(#p3a3dd55189)" style="fill: #f8fafc; stroke: #475569; stroke-width: 1.4; stroke-linejoin: miter"/>
   </g>
   <g id="patch_21">
    <path d="M 171.792 119.727764 
L 289.648 119.727764 
Q 295.744 119.727764 295.744 114.170837 
L 295.744 76.198505 
Q 295.744 70.641579 289.648 70.641579 
L 171.792 70.641579 
Q 165.696 70.641579 165.696 76.198505 
L 165.696 114.170837 
Q 165.696 119.727764 171.792 119.727764 
z
" clip-path="url(#p3a3dd55189)" style="fill: #f8fafc; stroke: #475569; stroke-width: 1.4; stroke-linejoin: miter"/>
   </g>
   <g id="patch_22">
    <path d="M 324.192 119.727764 
L 442.048 119.727764 
Q 448.144 119.727764 448.144 114.170837 
L 448.144 76.198505 
Q 448.144 70.641579 442.048 70.641579 
L 324.192 70.641579 
Q 318.096 70.641579 318.096 76.198505 
L 318.096 114.170837 
Q 318.096 119.727764 324.192 119.727764 
z
" clip-path="url(#p3a3dd55189)" style="fill: #f8fafc; stroke: #475569; stroke-width: 1.4; stroke-linejoin: miter"/>
   </g>
   <g id="patch_23">
    <path d="M 476.592 119.727764 
L 594.448 119.727764 
Q 600.544 119.727764 600.544 114.170837 
L 600.544 76.198505 
Q 600.544 70.641579 594.448 70.641579 
L 476.592 70.641579 
Q 470.496 70.641579 470.496 76.198505 
L 470.496 114.170837 
Q 470.496 119.727764 476.592 119.727764 
z
" clip-path="url(#p3a3dd55189)" style="fill: #f8fafc; stroke: #475569; stroke-width: 1.4; stroke-linejoin: miter"/>
   </g>
   <g id="patch_24">
    <path d="M 628.992 119.727764 
L 746.848 119.727764 
Q 752.944 119.727764 752.944 114.170837 
L 752.944 76.198505 
Q 752.944 70.641579 746.848 70.641579 
L 628.992 70.641579 
Q 622.896 70.641579 622.896 76.198505 
L 622.896 114.170837 
Q 622.896 119.727764 628.992 119.727764 
z
" clip-path="url(#p3a3dd55189)" style="fill: #f8fafc; stroke: #475569; stroke-width: 1.4; stroke-linejoin: miter"/>
   </g>
   <g id="patch_25">
    <path d="M 771.232 226.235524 
L 899.248 226.235524 
Q 905.344 226.235524 905.344 220.678597 
L 905.344 182.706265 
Q 905.344 177.149339 899.248 177.149339 
L 771.232 177.149339 
Q 765.136 177.149339 765.136 182.706265 
L 765.136 220.678597 
Q 765.136 226.235524 771.232 226.235524 
z
" clip-path="url(#p3a3dd55189)" style="fill: #eef2ff; stroke: #475569; stroke-width: 1.4; stroke-linejoin: miter"/>
   </g>
   <g id="patch_26">
    <path d="M 771.232 369.789461 
L 899.248 369.789461 
Q 905.344 369.789461 905.344 364.232535 
L 905.344 326.260203 
Q 905.344 320.703276 899.248 320.703276 
L 771.232 320.703276 
Q 765.136 320.703276 765.136 326.260203 
L 765.136 364.232535 
Q 765.136 369.789461 771.232 369.789461 
z
" clip-path="url(#p3a3dd55189)" style="fill: #eef2ff; stroke: #475569; stroke-width: 1.4; stroke-linejoin: miter"/>
   </g>
   <g id="patch_27">
    <path d="M 628.992 471.666449 
L 746.848 471.666449 
Q 752.944 471.666449 752.944 466.109522 
L 752.944 428.137191 
Q 752.944 422.580264 746.848 422.580264 
L 628.992 422.580264 
Q 622.896 422.580264 622.896 428.137191 
L 622.896 466.109522 
Q 622.896 471.666449 628.992 471.666449 
z
" clip-path="url(#p3a3dd55189)" style="fill: #f8fafc; stroke: #475569; stroke-width: 1.4; stroke-linejoin: miter"/>
   </g>
   <g id="patch_28">
    <path d="M 476.592 471.666449 
L 594.448 471.666449 
Q 600.544 471.666449 600.544 466.109522 
L 600.544 428.137191 
Q 600.544 422.580264 594.448 422.580264 
L 476.592 422.580264 
Q 470.496 422.580264 470.496 428.137191 
L 470.496 466.109522 
Q 470.496 471.666449 476.592 471.666449 
z
" clip-path="url(#p3a3dd55189)" style="fill: #f8fafc; stroke: #475569; stroke-width: 1.4; stroke-linejoin: miter"/>
   </g>
   <g id="patch_29">
    <path d="M 324.192 471.666449 
L 442.048 471.666449 
Q 448.144 471.666449 448.144 466.109522 
L 448.144 428.137191 
Q 448.144 422.580264 442.048 422.580264 
L 324.192 422.580264 
Q 318.096 422.580264 318.096 428.137191 
L 318.096 466.109522 
Q 318.096 471.666449 324.192 471.666449 
z
" clip-path="url(#p3a3dd55189)" style="fill: #f8fafc; stroke: #475569; stroke-width: 1.4; stroke-linejoin: miter"/>
   </g>
   <g id="patch_30">
    <path d="M 171.792 471.666449 
L 289.648 471.666449 
Q 295.744 471.666449 295.744 466.109522 
L 295.744 428.137191 
Q 295.744 422.580264 289.648 422.580264 
L 171.792 422.580264 
Q 165.696 422.580264 165.696 428.137191 
L 165.696 466.109522 
Q 165.696 471.666449 171.792 471.666449 
z
" clip-path="url(#p3a3dd55189)" style="fill: #fefce8; stroke: #475569; stroke-width: 1.4; stroke-linejoin: miter"/>
   </g>
   <g id="patch_31">
    <path d="M 776.312 471.666449 
L 894.168 471.666449 
Q 900.264 471.666449 900.264 466.109522 
L 900.264 428.137191 
Q 900.264 422.580264 894.168 422.580264 
L 776.312 422.580264 
Q 770.216 422.580264 770.216 428.137191 
L 770.216 466.109522 
Q 770.216 471.666449 776.312 471.666449 
z
" clip-path="url(#p3a3dd55189)" style="fill: #fefce8; stroke: #475569; stroke-width: 1.4; stroke-linejoin: miter"/>
   </g>
   <g id="patch_32">
    <path d="M 410.552 53.73926 
L 538.568 53.73926 
Q 544.664 53.73926 544.664 48.182334 
L 544.664 12.525388 
Q 544.664 6.968461 538.568 6.968461 
L 410.552 6.968461 
Q 404.456 6.968461 404.456 12.525388 
L 404.456 48.182334 
Q 404.456 53.73926 410.552 53.73926 
z
" clip-path="url(#p3a3dd55189)" style="fill: #fefce8; stroke: #475569; stroke-width: 1.4; stroke-linejoin: miter"/>
   </g>
   <g id="text_1">
    <!-- User -->
    <g style="fill: #1e293b" transform="translate(66.354102 97.91221) scale(0.105 -0.105)">
     <defs>
      <path id="DejaVuSans-38" d="M 556 4666 
L 1191 4666 
L 1191 1831 
Q 1191 1081 1462 751 
Q 1734 422 2344 422 
Q 2950 422 3222 751 
Q 3494 1081 3494 1831 
L 3494 4666 
L 4128 4666 
L 4128 1753 
Q 4128 841 3676 375 
Q 3225 -91 2344 -91 
Q 1459 -91 1007 375 
Q 556 841 556 1753 
L 556 4666 
z
" transform="scale(0.015625)"/>
      <path id="DejaVuSans-56" d="M 2834 3397 
L 2834 2853 
Q 2591 2978 2328 3040 
Q 2066 3103 1784 3103 
Q 1356 3103 1142 2972 
Q 928 2841 928 2578 
Q 928 2378 1081 2264 
Q 1234 2150 1697 2047 
L 1894 2003 
Q 2506 1872 2764 1633 
Q 3022 1394 3022 966 
Q 3022 478 2636 193 
Q 2250 -91 1575 -91 
Q 1294 -91 989 -36 
Q 684 19 347 128 
L 347 722 
Q 666 556 975 473 
Q 1284 391 1588 391 
Q 1994 391 2212 530 
Q 2431 669 2431 922 
Q 2431 1156 2273 1281 
Q 2116 1406 1581 1522 
L 1381 1569 
Q 847 1681 609 1914 
Q 372 2147 372 2553 
Q 372 3047 722 3315 
Q 1072 3584 1716 3584 
Q 2034 3584 2315 3537 
Q 2597 3491 2834 3397 
z
" transform="scale(0.015625)"/>
      <path id="DejaVuSans-48" d="M 3597 1894 
L 3597 1613 
L 953 1613 
Q 991 1019 1311 708 
Q 1631 397 2203 397 
Q 2534 397 2845 478 
Q 3156 559 3463 722 
L 3463 178 
Q 3153 47 2828 -22 
Q 2503 -91 2169 -91 
Q 1331 -91 842 396 
Q 353 884 353 1716 
Q 353 2575 817 3079 
Q 1281 3584 2069 3584 
Q 2775 3584 3186 3129 
Q 3597 2675 3597 1894 
z
M 3022 2063 
Q 3016 2534 2758 2815 
Q 2500 3097 2075 3097 
Q 1594 3097 1305 2825 
Q 1016 2553 972 2059 
L 3022 2063 
z
" transform="scale(0.015625)"/>
      <path id="DejaVuSans-55" d="M 2631 2963 
Q 2534 3019 2420 3045 
Q 2306 3072 2169 3072 
Q 1681 3072 1420 2755 
Q 1159 2438 1159 1844 
L 1159 0 
L 581 0 
L 581 3500 
L 1159 3500 
L 1159 2956 
Q 1341 3275 1631 3429 
Q 1922 3584 2338 3584 
Q 2397 3584 2469 3576 
Q 2541 3569 2628 3553 
L 2631 2963 
z
" transform="scale(0.015625)"/>
     </defs>
     <use xlink:href="#DejaVuSans-38"/>
     <use xlink:href="#DejaVuSans-56" transform="translate(73.1875 0)"/>
     <use xlink:href="#DejaVuSans-48" transform="translate(125.28125 0)"/>
     <use xlink:href="#DejaVuSans-55" transform="translate(186.8125 0)"/>
    </g>
   </g>
   <g id="text_2">
    <!-- UI (Next.js) -->
    <g style="fill: #1e293b" transform="translate(201.470117 97.912621) scale(0.105 -0.105)">
     <defs>
      <path id="DejaVuSans-2c" d="M 628 4666 
L 1259 4666 
L 1259 0 
L 628 0 
L 628 4666 
z
" transform="scale(0.015625)"/>
      <path id="DejaVuSans-3" transform="scale(0.015625)"/>
      <path id="DejaVuSans-b" d="M 1984 4856 
Q 1566 4138 1362 3434 
Q 1159 2731 1159 2009 
Q 1159 1288 1364 580 
Q 1569 -128 1984 -844 
L 1484 -844 
Q 1016 -109 783 600 
Q 550 1309 550 2009 
Q 550 2706 781 3412 
Q 1013 4119 1484 4856 
L 1984 4856 
z
" transform="scale(0.015625)"/>
      <path id="DejaVuSans-31" d="M 628 4666 
L 1478 4666 
L 3547 763 
L 3547 4666 
L 4159 4666 
L 4159 0 
L 3309 0 
L 1241 3903 
L 1241 0 
L 628 0 
L 628 4666 
z
" transform="scale(0.015625)"/>
      <path id="DejaVuSans-5b" d="M 3513 3500 
L 2247 1797 
L 3578 0 
L 2900 0 
L 1881 1375 
L 863 0 
L 184 0 
L 1544 1831 
L 300 3500 
L 978 3500 
L 1906 2253 
L 2834 3500 
L 3513 3500 
z
" transform="scale(0.015625)"/>
      <path id="DejaVuSans-57" d="M 1172 4494 
L 1172 3500 
L 2356 3500 
L 2356 3053 
L 1172 3053 
L 1172 1153 
Q 1172 725 1289 603 
Q 1406 481 1766 481 
L 2356 481 
L 2356 0 
L 1766 0 
Q 1100 0 847 248 
Q 594 497 594 1153 
L 594 3053 
L 172 3053 
L 172 3500 
L 594 3500 
L 594 4494 
L 1172 4494 
z
" transform="scale(0.015625)"/>
      <path id="DejaVuSans-11" d="M 684 794 
L 1344 794 
L 1344 0 
L 684 0 
L 684 794 
z
" transform="scale(0.015625)"/>
      <path id="DejaVuSans-4d" d="M 603 3500 
L 1178 3500 
L 1178 -63 
Q 1178 -731 923 -1031 
Q 669 -1331 103 -1331 
L -116 -1331 
L -116 -844 
L 38 -844 
Q 366 -844 484 -692 
Q 603 -541 603 -63 
L 603 3500 
z
M 603 4863 
L 1178 4863 
L 1178 4134 
L 603 4134 
L 603 4863 
z
" transform="scale(0.015625)"/>
      <path id="DejaVuSans-c" d="M 513 4856 
L 1013 4856 
Q 1481 4119 1714 3412 
Q 1947 2706 1947 2009 
Q 1947 1309 1714 600 
Q 1481 -109 1013 -844 
L 513 -844 
Q 928 -128 1133 580 
Q 1338 1288 1338 2009 
Q 1338 2731 1133 3434 
Q 928 4138 513 4856 
z
" transform="scale(0.015625)"/>
     </defs>
     <use xlink:href="#DejaVuSans-38"/>
     <use xlink:href="#DejaVuSans-2c" transform="translate(73.1875 0)"/>
     <use xlink:href="#DejaVuSans-3" transform="translate(102.6875 0)"/>
     <use xlink:href="#DejaVuSans-b" transform="translate(134.46875 0)"/>
     <use xlink:href="#DejaVuSans-31" transform="translate(173.484375 0)"/>
     <use xlink:href="#DejaVuSans-48" transform="translate(248.296875 0)"/>
     <use xlink:href="#DejaVuSans-5b" transform="translate(308.078125 0)"/>
     <use xlink:href="#DejaVuSans-57" transform="translate(367.265625 0)"/>
     <use xlink:href="#DejaVuSans-11" transform="translate(406.46875 0)"/>
     <use xlink:href="#DejaVuSans-4d" transform="translate(438.25 0)"/>
     <use xlink:href="#DejaVuSans-56" transform="translate(466.03125 0)"/>
     <use xlink:href="#DejaVuSans-c" transform="translate(518.125 0)"/>
    </g>
   </g>
   <g id="text_3">
    <!-- Planner -->
    <g style="fill: #1e293b" transform="translate(363.235625 97.912621) scale(0.105 -0.105)">
     <defs>
      <path id="DejaVuSans-33" d="M 1259 4147 
L 1259 2394 
L 2053 2394 
Q 2494 2394 2734 2622 
Q 2975 2850 2975 3272 
Q 2975 3691 2734 3919 
Q 2494 4147 2053 4147 
L 1259 4147 
z
M 628 4666 
L 2053 4666 
Q 2838 4666 3239 4311 
Q 3641 3956 3641 3272 
Q 3641 2581 3239 2228 
Q 2838 1875 2053 1875 
L 1259 1875 
L 1259 0 
L 628 0 
L 628 4666 
z
" transform="scale(0.015625)"/>
      <path id="DejaVuSans-4f" d="M 603 4863 
L 1178 4863 
L 1178 0 
L 603 0 
L 603 4863 
z
" transform="scale(0.015625)"/>
      <path id="DejaVuSans-44" d="M 2194 1759 
Q 1497 1759 1228 1600 
Q 959 1441 959 1056 
Q 959 750 1161 570 
Q 1363 391 1709 391 
Q 2188 391 2477 730 
Q 2766 1069 2766 1631 
L 2766 1759 
L 2194 1759 
z
M 3341 1997 
L 3341 0 
L 2766 0 
L 2766 531 
Q 2569 213 2275 61 
Q 1981 -91 1556 -91 
Q 1019 -91 701 211 
Q 384 513 384 1019 
Q 384 1609 779 1909 
Q 1175 2209 1959 2209 
L 2766 2209 
L 2766 2266 
Q 2766 2663 2505 2880 
Q 2244 3097 1772 3097 
Q 1472 3097 1187 3025 
Q 903 2953 641 2809 
L 641 3341 
Q 956 3463 1253 3523 
Q 1550 3584 1831 3584 
Q 2591 3584 2966 3190 
Q 3341 2797 3341 1997 
z
" transform="scale(0.015625)"/>
      <path id="DejaVuSans-51" d="M 3513 2113 
L 3513 0 
L 2938 0 
L 2938 2094 
Q 2938 2591 2744 2837 
Q 2550 3084 2163 3084 
Q 1697 3084 1428 2787 
Q 1159 2491 1159 1978 
L 1159 0 
L 581 0 
L 581 3500 
L 1159 3500 
L 1159 2956 
Q 1366 3272 1645 3428 
Q 1925 3584 2291 3584 
Q 2894 3584 3203 3211 
Q 3513 2838 3513 2113 
z
" transform="scale(0.015625)"/>
     </defs>
     <use xlink:href="#DejaVuSans-33"/>
     <use xlink:href="#DejaVuSans-4f" transform="translate(60.296875 0)"/>
     <use xlink:href="#DejaVuSans-44" transform="translate(88.078125 0)"/>
     <use xlink:href="#DejaVuSans-51" transform="translate(149.359375 0)"/>
     <use xlink:href="#DejaVuSans-51" transform="translate(212.734375 0)"/>
     <use xlink:href="#DejaVuSans-48" transform="translate(276.109375 0)"/>
     <use xlink:href="#DejaVuSans-55" transform="translate(337.640625 0)"/>
    </g>
   </g>
   <g id="text_4">
    <!-- Builder -->
    <g style="fill: #1e293b" transform="translate(516.952227 97.912621) scale(0.105 -0.105)">
     <defs>
      <path id="DejaVuSans-25" d="M 1259 2228 
L 1259 519 
L 2272 519 
Q 2781 519 3026 730 
Q 3272 941 3272 1375 
Q 3272 1813 3026 2020 
Q 2781 2228 2272 2228 
L 1259 2228 
z
M 1259 4147 
L 1259 2741 
L 2194 2741 
Q 2656 2741 2882 2914 
Q 3109 3088 3109 3444 
Q 3109 3797 2882 3972 
Q 2656 4147 2194 4147 
L 1259 4147 
z
M 628 4666 
L 2241 4666 
Q 2963 4666 3353 4366 
Q 3744 4066 3744 3513 
Q 3744 3084 3544 2831 
Q 3344 2578 2956 2516 
Q 3422 2416 3680 2098 
Q 3938 1781 3938 1306 
Q 3938 681 3513 340 
Q 3088 0 2303 0 
L 628 0 
L 628 4666 
z
" transform="scale(0.015625)"/>
      <path id="DejaVuSans-58" d="M 544 1381 
L 544 3500 
L 1119 3500 
L 1119 1403 
Q 1119 906 1312 657 
Q 1506 409 1894 409 
Q 2359 409 2629 706 
Q 2900 1003 2900 1516 
L 2900 3500 
L 3475 3500 
L 3475 0 
L 2900 0 
L 2900 538 
Q 2691 219 2414 64 
Q 2138 -91 1772 -91 
Q 1169 -91 856 284 
Q 544 659 544 1381 
z
M 1991 3584 
L 1991 3584 
z
" transform="scale(0.015625)"/>
      <path id="DejaVuSans-4c" d="M 603 3500 
L 1178 3500 
L 1178 0 
L 603 0 
L 603 3500 
z
M 603 4863 
L 1178 4863 
L 1178 4134 
L 603 4134 
L 603 4863 
z
" transform="scale(0.015625)"/>
      <path id="DejaVuSans-47" d="M 2906 2969 
L 2906 4863 
L 3481 4863 
L 3481 0 
L 2906 0 
L 2906 525 
Q 2725 213 2448 61 
Q 2172 -91 1784 -91 
Q 1150 -91 751 415 
Q 353 922 353 1747 
Q 353 2572 751 3078 
Q 1150 3584 1784 3584 
Q 2172 3584 2448 3432 
Q 2725 3281 2906 2969 
z
M 947 1747 
Q 947 1113 1208 752 
Q 1469 391 1925 391 
Q 2381 391 2643 752 
Q 2906 1113 2906 1747 
Q 2906 2381 2643 2742 
Q 2381 3103 1925 3103 
Q 1469 3103 1208 2742 
Q 947 2381 947 1747 
z
" transform="scale(0.015625)"/>
     </defs>
     <use xlink:href="#DejaVuSans-25"/>
     <use xlink:href="#DejaVuSans-58" transform="translate(68.609375 0)"/>
     <use xlink:href="#DejaVuSans-4c" transform="translate(131.984375 0)"/>
     <use xlink:href="#DejaVuSans-4f" transform="translate(159.765625 0)"/>
     <use xlink:href="#DejaVuSans-47" transform="translate(187.546875 0)"/>
     <use xlink:href="#DejaVuSans-48" transform="translate(251.03125 0)"/>
     <use xlink:href="#DejaVuSans-55" transform="translate(312.5625 0)"/>
    </g>
   </g>
   <g id="text_5">
    <!-- Deployer -->
    <g style="fill: #1e293b" transform="translate(664.147344 97.912621) scale(0.105 -0.105)">
     <defs>
      <path id="DejaVuSans-27" d="M 1259 4147 
L 1259 519 
L 2022 519 
Q 2988 519 3436 956 
Q 3884 1394 3884 2338 
Q 3884 3275 3436 3711 
Q 2988 4147 2022 4147 
L 1259 4147 
z
M 628 4666 
L 1925 4666 
Q 3281 4666 3915 4102 
Q 4550 3538 4550 2338 
Q 4550 1131 3912 565 
Q 3275 0 1925 0 
L 628 0 
L 628 4666 
z
" transform="scale(0.015625)"/>
      <path id="DejaVuSans-53" d="M 1159 525 
L 1159 -1331 
L 581 -1331 
L 581 3500 
L 1159 3500 
L 1159 2969 
Q 1341 3281 1617 3432 
Q 1894 3584 2278 3584 
Q 2916 3584 3314 3078 
Q 3713 2572 3713 1747 
Q 3713 922 3314 415 
Q 2916 -91 2278 -91 
Q 1894 -91 1617 61 
Q 1341 213 1159 525 
z
M 3116 1747 
Q 3116 2381 2855 2742 
Q 2594 3103 2138 3103 
Q 1681 3103 1420 2742 
Q 1159 2381 1159 1747 
Q 1159 1113 1420 752 
Q 1681 391 2138 391 
Q 2594 391 2855 752 
Q 3116 1113 3116 1747 
z
" transform="scale(0.015625)"/>
      <path id="DejaVuSans-52" d="M 1959 3097 
Q 1497 3097 1228 2736 
Q 959 2375 959 1747 
Q 959 1119 1226 758 
Q 1494 397 1959 397 
Q 2419 397 2687 759 
Q 2956 1122 2956 1747 
Q 2956 2369 2687 2733 
Q 2419 3097 1959 3097 
z
M 1959 3584 
Q 2709 3584 3137 3096 
Q 3566 2609 3566 1747 
Q 3566 888 3137 398 
Q 2709 -91 1959 -91 
Q 1206 -91 779 398 
Q 353 888 353 1747 
Q 353 2609 779 3096 
Q 1206 3584 1959 3584 
z
" transform="scale(0.015625)"/>
      <path id="DejaVuSans-5c" d="M 2059 -325 
Q 1816 -950 1584 -1140 
Q 1353 -1331 966 -1331 
L 506 -1331 
L 506 -850 
L 844 -850 
Q 1081 -850 1212 -737 
Q 1344 -625 1503 -206 
L 1606 56 
L 191 3500 
L 800 3500 
L 1894 763 
L 2988 3500 
L 3597 3500 
L 2059 -325 
z
" transform="scale(0.015625)"/>
     </defs>
     <use xlink:href="#DejaVuSans-27"/>
     <use xlink:href="#DejaVuSans-48" transform="translate(77 0)"/>
     <use xlink:href="#DejaVuSans-53" transform="translate(138.53125 0)"/>
     <use xlink:href="#DejaVuSans-4f" transform="translate(202.015625 0)"/>
     <use xlink:href="#DejaVuSans-52" transform="translate(229.796875 0)"/>
     <use xlink:href="#DejaVuSans-5c" transform="translate(290.984375 0)"/>
     <use xlink:href="#DejaVuSans-48" transform="translate(350.171875 0)"/>
     <use xlink:href="#DejaVuSans-55" transform="translate(411.703125 0)"/>
    </g>
   </g>
   <g id="text_6">
    <!-- Splunk MCP -->
    <g style="fill: #1e293b" transform="translate(807.329297 198.459648) scale(0.095 -0.095)">
     <defs>
      <path id="DejaVuSans-36" d="M 3425 4513 
L 3425 3897 
Q 3066 4069 2747 4153 
Q 2428 4238 2131 4238 
Q 1616 4238 1336 4038 
Q 1056 3838 1056 3469 
Q 1056 3159 1242 3001 
Q 1428 2844 1947 2747 
L 2328 2669 
Q 3034 2534 3370 2195 
Q 3706 1856 3706 1288 
Q 3706 609 3251 259 
Q 2797 -91 1919 -91 
Q 1588 -91 1214 -16 
Q 841 59 441 206 
L 441 856 
Q 825 641 1194 531 
Q 1563 422 1919 422 
Q 2459 422 2753 634 
Q 3047 847 3047 1241 
Q 3047 1584 2836 1778 
Q 2625 1972 2144 2069 
L 1759 2144 
Q 1053 2284 737 2584 
Q 422 2884 422 3419 
Q 422 4038 858 4394 
Q 1294 4750 2059 4750 
Q 2388 4750 2728 4690 
Q 3069 4631 3425 4513 
z
" transform="scale(0.015625)"/>
      <path id="DejaVuSans-4e" d="M 581 4863 
L 1159 4863 
L 1159 1991 
L 2875 3500 
L 3609 3500 
L 1753 1863 
L 3688 0 
L 2938 0 
L 1159 1709 
L 1159 0 
L 581 0 
L 581 4863 
z
" transform="scale(0.015625)"/>
      <path id="DejaVuSans-30" d="M 628 4666 
L 1569 4666 
L 2759 1491 
L 3956 4666 
L 4897 4666 
L 4897 0 
L 4281 0 
L 4281 4097 
L 3078 897 
L 2444 897 
L 1241 4097 
L 1241 0 
L 628 0 
L 628 4666 
z
" transform="scale(0.015625)"/>
      <path id="DejaVuSans-26" d="M 4122 4306 
L 4122 3641 
Q 3803 3938 3442 4084 
Q 3081 4231 2675 4231 
Q 1875 4231 1450 3742 
Q 1025 3253 1025 2328 
Q 1025 1406 1450 917 
Q 1875 428 2675 428 
Q 3081 428 3442 575 
Q 3803 722 4122 1019 
L 4122 359 
Q 3791 134 3420 21 
Q 3050 -91 2638 -91 
Q 1578 -91 968 557 
Q 359 1206 359 2328 
Q 359 3453 968 4101 
Q 1578 4750 2638 4750 
Q 3056 4750 3426 4639 
Q 3797 4528 4122 4306 
z
" transform="scale(0.015625)"/>
     </defs>
     <use xlink:href="#DejaVuSans-36"/>
     <use xlink:href="#DejaVuSans-53" transform="translate(63.484375 0)"/>
     <use xlink:href="#DejaVuSans-4f" transform="translate(126.96875 0)"/>
     <use xlink:href="#DejaVuSans-58" transform="translate(154.75 0)"/>
     <use xlink:href="#DejaVuSans-51" transform="translate(218.125 0)"/>
     <use xlink:href="#DejaVuSans-4e" transform="translate(281.5 0)"/>
     <use xlink:href="#DejaVuSans-3" transform="translate(339.40625 0)"/>
     <use xlink:href="#DejaVuSans-30" transform="translate(371.1875 0)"/>
     <use xlink:href="#DejaVuSans-26" transform="translate(457.46875 0)"/>
     <use xlink:href="#DejaVuSans-33" transform="translate(527.296875 0)"/>
    </g>
    <!-- Server -->
    <g style="fill: #1e293b" transform="translate(819.662227 209.861504) scale(0.095 -0.095)">
     <defs>
      <path id="DejaVuSans-59" d="M 191 3500 
L 800 3500 
L 1894 563 
L 2988 3500 
L 3597 3500 
L 2284 0 
L 1503 0 
L 191 3500 
z
" transform="scale(0.015625)"/>
     </defs>
     <use xlink:href="#DejaVuSans-36"/>
     <use xlink:href="#DejaVuSans-48" transform="translate(63.484375 0)"/>
     <use xlink:href="#DejaVuSans-55" transform="translate(125.015625 0)"/>
     <use xlink:href="#DejaVuSans-59" transform="translate(166.125 0)"/>
     <use xlink:href="#DejaVuSans-48" transform="translate(225.3125 0)"/>
     <use xlink:href="#DejaVuSans-55" transform="translate(286.84375 0)"/>
    </g>
   </g>
   <g id="text_7">
    <!-- Splunk -->
    <g style="fill: #1e293b" transform="translate(817.421172 347.974318) scale(0.105 -0.105)">
     <use xlink:href="#DejaVuSans-36"/>
     <use xlink:href="#DejaVuSans-53" transform="translate(63.484375 0)"/>
     <use xlink:href="#DejaVuSans-4f" transform="translate(126.96875 0)"/>
     <use xlink:href="#DejaVuSans-58" transform="translate(154.75 0)"/>
     <use xlink:href="#DejaVuSans-51" transform="translate(218.125 0)"/>
     <use xlink:href="#DejaVuSans-4e" transform="translate(281.5 0)"/>
    </g>
   </g>
   <g id="text_8">
    <!-- Observer -->
    <g style="fill: #1e293b" transform="translate(663.834805 449.851306) scale(0.105 -0.105)">
     <defs>
      <path id="DejaVuSans-32" d="M 2522 4238 
Q 1834 4238 1429 3725 
Q 1025 3213 1025 2328 
Q 1025 1447 1429 934 
Q 1834 422 2522 422 
Q 3209 422 3611 934 
Q 4013 1447 4013 2328 
Q 4013 3213 3611 3725 
Q 3209 4238 2522 4238 
z
M 2522 4750 
Q 3503 4750 4090 4092 
Q 4678 3434 4678 2328 
Q 4678 1225 4090 567 
Q 3503 -91 2522 -91 
Q 1538 -91 948 565 
Q 359 1222 359 2328 
Q 359 3434 948 4092 
Q 1538 4750 2522 4750 
z
" transform="scale(0.015625)"/>
      <path id="DejaVuSans-45" d="M 3116 1747 
Q 3116 2381 2855 2742 
Q 2594 3103 2138 3103 
Q 1681 3103 1420 2742 
Q 1159 2381 1159 1747 
Q 1159 1113 1420 752 
Q 1681 391 2138 391 
Q 2594 391 2855 752 
Q 3116 1113 3116 1747 
z
M 1159 2969 
Q 1341 3281 1617 3432 
Q 1894 3584 2278 3584 
Q 2916 3584 3314 3078 
Q 3713 2572 3713 1747 
Q 3713 922 3314 415 
Q 2916 -91 2278 -91 
Q 1894 -91 1617 61 
Q 1341 213 1159 525 
L 1159 0 
L 581 0 
L 581 4863 
L 1159 4863 
L 1159 2969 
z
" transform="scale(0.015625)"/>
     </defs>
     <use xlink:href="#DejaVuSans-32"/>
     <use xlink:href="#DejaVuSans-45" transform="translate(78.71875 0)"/>
     <use xlink:href="#DejaVuSans-56" transform="translate(142.203125 0)"/>
     <use xlink:href="#DejaVuSans-48" transform="translate(194.296875 0)"/>
     <use xlink:href="#DejaVuSans-55" transform="translate(255.828125 0)"/>
     <use xlink:href="#DejaVuSans-59" transform="translate(296.9375 0)"/>
     <use xlink:href="#DejaVuSans-48" transform="translate(356.125 0)"/>
     <use xlink:href="#DejaVuSans-55" transform="translate(417.65625 0)"/>
    </g>
   </g>
   <g id="text_9">
    <!-- Tuner -->
    <g style="fill: #1e293b" transform="translate(521.067734 449.850896) scale(0.105 -0.105)">
     <defs>
      <path id="DejaVuSans-37" d="M -19 4666 
L 3928 4666 
L 3928 4134 
L 2272 4134 
L 2272 0 
L 1638 0 
L 1638 4134 
L -19 4134 
L -19 4666 
z
" transform="scale(0.015625)"/>
     </defs>
     <use xlink:href="#DejaVuSans-37"/>
     <use xlink:href="#DejaVuSans-58" transform="translate(45.890625 0)"/>
     <use xlink:href="#DejaVuSans-51" transform="translate(109.265625 0)"/>
     <use xlink:href="#DejaVuSans-48" transform="translate(172.640625 0)"/>
     <use xlink:href="#DejaVuSans-55" transform="translate(234.171875 0)"/>
    </g>
   </g>
   <g id="text_10">
    <!-- Approver -->
    <g style="fill: #1e293b" transform="translate(359.111914 449.850896) scale(0.105 -0.105)">
     <defs>
      <path id="DejaVuSans-24" d="M 2188 4044 
L 1331 1722 
L 3047 1722 
L 2188 4044 
z
M 1831 4666 
L 2547 4666 
L 4325 0 
L 3669 0 
L 3244 1197 
L 1141 1197 
L 716 0 
L 50 0 
L 1831 4666 
z
" transform="scale(0.015625)"/>
     </defs>
     <use xlink:href="#DejaVuSans-24"/>
     <use xlink:href="#DejaVuSans-53" transform="translate(68.40625 0)"/>
     <use xlink:href="#DejaVuSans-53" transform="translate(131.890625 0)"/>
     <use xlink:href="#DejaVuSans-55" transform="translate(195.375 0)"/>
     <use xlink:href="#DejaVuSans-52" transform="translate(234.28125 0)"/>
     <use xlink:href="#DejaVuSans-59" transform="translate(295.46875 0)"/>
     <use xlink:href="#DejaVuSans-48" transform="translate(354.65625 0)"/>
     <use xlink:href="#DejaVuSans-55" transform="translate(416.1875 0)"/>
    </g>
   </g>
   <g id="text_11">
    <!-- SQLite -->
    <g style="fill: #1e293b" transform="translate(216.030313 444.060368) scale(0.09 -0.09)">
     <defs>
      <path id="DejaVuSans-34" d="M 2522 4238 
Q 1834 4238 1429 3725 
Q 1025 3213 1025 2328 
Q 1025 1447 1429 934 
Q 1834 422 2522 422 
Q 3209 422 3611 934 
Q 4013 1447 4013 2328 
Q 4013 3213 3611 3725 
Q 3209 4238 2522 4238 
z
M 3406 84 
L 4238 -825 
L 3475 -825 
L 2784 -78 
Q 2681 -84 2626 -87 
Q 2572 -91 2522 -91 
Q 1538 -91 948 567 
Q 359 1225 359 2328 
Q 359 3434 948 4092 
Q 1538 4750 2522 4750 
Q 3503 4750 4090 4092 
Q 4678 3434 4678 2328 
Q 4678 1516 4351 937 
Q 4025 359 3406 84 
z
" transform="scale(0.015625)"/>
      <path id="DejaVuSans-2f" d="M 628 4666 
L 1259 4666 
L 1259 531 
L 3531 531 
L 3531 0 
L 628 0 
L 628 4666 
z
" transform="scale(0.015625)"/>
     </defs>
     <use xlink:href="#DejaVuSans-36"/>
     <use xlink:href="#DejaVuSans-34" transform="translate(63.484375 0)"/>
     <use xlink:href="#DejaVuSans-2f" transform="translate(142.203125 0)"/>
     <use xlink:href="#DejaVuSans-4c" transform="translate(197.921875 0)"/>
     <use xlink:href="#DejaVuSans-57" transform="translate(225.703125 0)"/>
     <use xlink:href="#DejaVuSans-48" transform="translate(264.90625 0)"/>
    </g>
    <!-- (changelog, versions) -->
    <g style="fill: #1e293b" transform="translate(182.100313 454.862829) scale(0.09 -0.09)">
     <defs>
      <path id="DejaVuSans-46" d="M 3122 3366 
L 3122 2828 
Q 2878 2963 2633 3030 
Q 2388 3097 2138 3097 
Q 1578 3097 1268 2742 
Q 959 2388 959 1747 
Q 959 1106 1268 751 
Q 1578 397 2138 397 
Q 2388 397 2633 464 
Q 2878 531 3122 666 
L 3122 134 
Q 2881 22 2623 -34 
Q 2366 -91 2075 -91 
Q 1284 -91 818 406 
Q 353 903 353 1747 
Q 353 2603 823 3093 
Q 1294 3584 2113 3584 
Q 2378 3584 2631 3529 
Q 2884 3475 3122 3366 
z
" transform="scale(0.015625)"/>
      <path id="DejaVuSans-4b" d="M 3513 2113 
L 3513 0 
L 2938 0 
L 2938 2094 
Q 2938 2591 2744 2837 
Q 2550 3084 2163 3084 
Q 1697 3084 1428 2787 
Q 1159 2491 1159 1978 
L 1159 0 
L 581 0 
L 581 4863 
L 1159 4863 
L 1159 2956 
Q 1366 3272 1645 3428 
Q 1925 3584 2291 3584 
Q 2894 3584 3203 3211 
Q 3513 2838 3513 2113 
z
" transform="scale(0.015625)"/>
      <path id="DejaVuSans-4a" d="M 2906 1791 
Q 2906 2416 2648 2759 
Q 2391 3103 1925 3103 
Q 1463 3103 1205 2759 
Q 947 2416 947 1791 
Q 947 1169 1205 825 
Q 1463 481 1925 481 
Q 2391 481 2648 825 
Q 2906 1169 2906 1791 
z
M 3481 434 
Q 3481 -459 3084 -895 
Q 2688 -1331 1869 -1331 
Q 1566 -1331 1297 -1286 
Q 1028 -1241 775 -1147 
L 775 -588 
Q 1028 -725 1275 -790 
Q 1522 -856 1778 -856 
Q 2344 -856 2625 -561 
Q 2906 -266 2906 331 
L 2906 616 
Q 2728 306 2450 153 
Q 2172 0 1784 0 
Q 1141 0 747 490 
Q 353 981 353 1791 
Q 353 2603 747 3093 
Q 1141 3584 1784 3584 
Q 2172 3584 2450 3431 
Q 2728 3278 2906 2969 
L 2906 3500 
L 3481 3500 
L 3481 434 
z
" transform="scale(0.015625)"/>
      <path id="DejaVuSans-f" d="M 750 794 
L 1409 794 
L 1409 256 
L 897 -744 
L 494 -744 
L 750 256 
L 750 794 
z
" transform="scale(0.015625)"/>
     </defs>
     <use xlink:href="#DejaVuSans-b"/>
     <use xlink:href="#DejaVuSans-46" transform="translate(39.015625 0)"/>
     <use xlink:href="#DejaVuSans-4b" transform="translate(94 0)"/>
     <use xlink:href="#DejaVuSans-44" transform="translate(157.375 0)"/>
     <use xlink:href="#DejaVuSans-51" transform="translate(218.65625 0)"/>
     <use xlink:href="#DejaVuSans-4a" transform="translate(282.03125 0)"/>
     <use xlink:href="#DejaVuSans-48" transform="translate(345.515625 0)"/>
     <use xlink:href="#DejaVuSans-4f" transform="translate(407.046875 0)"/>
     <use xlink:href="#DejaVuSans-52" transform="translate(434.828125 0)"/>
     <use xlink:href="#DejaVuSans-4a" transform="translate(496.015625 0)"/>
     <use xlink:href="#DejaVuSans-f" transform="translate(559.5 0)"/>
     <use xlink:href="#DejaVuSans-3" transform="translate(591.28125 0)"/>
     <use xlink:href="#DejaVuSans-59" transform="translate(623.0625 0)"/>
     <use xlink:href="#DejaVuSans-48" transform="translate(682.25 0)"/>
     <use xlink:href="#DejaVuSans-55" transform="translate(743.78125 0)"/>
     <use xlink:href="#DejaVuSans-56" transform="translate(784.890625 0)"/>
     <use xlink:href="#DejaVuSans-4c" transform="translate(836.984375 0)"/>
     <use xlink:href="#DejaVuSans-52" transform="translate(864.765625 0)"/>
     <use xlink:href="#DejaVuSans-51" transform="translate(925.953125 0)"/>
     <use xlink:href="#DejaVuSans-56" transform="translate(989.328125 0)"/>
     <use xlink:href="#DejaVuSans-c" transform="translate(1041.421875 0)"/>
    </g>
   </g>
   <g id="text_12">
    <!-- Audit Log -->
    <g style="fill: #1e293b" transform="translate(812.788086 449.591501) scale(0.095 -0.095)">
     <use xlink:href="#DejaVuSans-24"/>
     <use xlink:href="#DejaVuSans-58" transform="translate(68.40625 0)"/>
     <use xlink:href="#DejaVuSans-47" transform="translate(131.78125 0)"/>
     <use xlink:href="#DejaVuSans-4c" transform="translate(195.265625 0)"/>
     <use xlink:href="#DejaVuSans-57" transform="translate(223.046875 0)"/>
     <use xlink:href="#DejaVuSans-3" transform="translate(262.25 0)"/>
     <use xlink:href="#DejaVuSans-2f" transform="translate(294.03125 0)"/>
     <use xlink:href="#DejaVuSans-52" transform="translate(348 0)"/>
     <use xlink:href="#DejaVuSans-4a" transform="translate(409.1875 0)"/>
    </g>
   </g>
   <g id="text_13">
    <!-- Gemini (LLM) -->
    <g style="fill: #1e293b" transform="translate(443.072695 32.822005) scale(0.095 -0.095)">
     <defs>
      <path id="DejaVuSans-2a" d="M 3809 666 
L 3809 1919 
L 2778 1919 
L 2778 2438 
L 4434 2438 
L 4434 434 
Q 4069 175 3628 42 
Q 3188 -91 2688 -91 
Q 1594 -91 976 548 
Q 359 1188 359 2328 
Q 359 3472 976 4111 
Q 1594 4750 2688 4750 
Q 3144 4750 3555 4637 
Q 3966 4525 4313 4306 
L 4313 3634 
Q 3963 3931 3569 4081 
Q 3175 4231 2741 4231 
Q 1884 4231 1454 3753 
Q 1025 3275 1025 2328 
Q 1025 1384 1454 906 
Q 1884 428 2741 428 
Q 3075 428 3337 486 
Q 3600 544 3809 666 
z
" transform="scale(0.015625)"/>
      <path id="DejaVuSans-50" d="M 3328 2828 
Q 3544 3216 3844 3400 
Q 4144 3584 4550 3584 
Q 5097 3584 5394 3201 
Q 5691 2819 5691 2113 
L 5691 0 
L 5113 0 
L 5113 2094 
Q 5113 2597 4934 2840 
Q 4756 3084 4391 3084 
Q 3944 3084 3684 2787 
Q 3425 2491 3425 1978 
L 3425 0 
L 2847 0 
L 2847 2094 
Q 2847 2600 2669 2842 
Q 2491 3084 2119 3084 
Q 1678 3084 1418 2786 
Q 1159 2488 1159 1978 
L 1159 0 
L 581 0 
L 581 3500 
L 1159 3500 
L 1159 2956 
Q 1356 3278 1631 3431 
Q 1906 3584 2284 3584 
Q 2666 3584 2933 3390 
Q 3200 3197 3328 2828 
z
" transform="scale(0.015625)"/>
     </defs>
     <use xlink:href="#DejaVuSans-2a"/>
     <use xlink:href="#DejaVuSans-48" transform="translate(77.484375 0)"/>
     <use xlink:href="#DejaVuSans-50" transform="translate(139.015625 0)"/>
     <use xlink:href="#DejaVuSans-4c" transform="translate(236.421875 0)"/>
     <use xlink:href="#DejaVuSans-51" transform="translate(264.203125 0)"/>
     <use xlink:href="#DejaVuSans-4c" transform="translate(327.578125 0)"/>
     <use xlink:href="#DejaVuSans-3" transform="translate(355.359375 0)"/>
     <use xlink:href="#DejaVuSans-b" transform="translate(387.140625 0)"/>
     <use xlink:href="#DejaVuSans-2f" transform="translate(426.15625 0)"/>
     <use xlink:href="#DejaVuSans-2f" transform="translate(481.875 0)"/>
     <use xlink:href="#DejaVuSans-30" transform="translate(537.59375 0)"/>
     <use xlink:href="#DejaVuSans-c" transform="translate(623.875 0)"/>
    </g>
   </g>
   <g id="text_14">
    <!-- Heron Architecture -->
    <g style="fill: #1e293b" transform="translate(22.44 34.770541) scale(0.17 -0.17)">
     <defs>
      <path id="DejaVuSans-Bold-2b" d="M 588 4666 
L 1791 4666 
L 1791 2888 
L 3566 2888 
L 3566 4666 
L 4769 4666 
L 4769 0 
L 3566 0 
L 3566 1978 
L 1791 1978 
L 1791 0 
L 588 0 
L 588 4666 
z
" transform="scale(0.015625)"/>
      <path id="DejaVuSans-Bold-48" d="M 4031 1759 
L 4031 1441 
L 1416 1441 
Q 1456 1047 1700 850 
Q 1944 653 2381 653 
Q 2734 653 3104 758 
Q 3475 863 3866 1075 
L 3866 213 
Q 3469 63 3072 -14 
Q 2675 -91 2278 -91 
Q 1328 -91 801 392 
Q 275 875 275 1747 
Q 275 2603 792 3093 
Q 1309 3584 2216 3584 
Q 3041 3584 3536 3087 
Q 4031 2591 4031 1759 
z
M 2881 2131 
Q 2881 2450 2695 2645 
Q 2509 2841 2209 2841 
Q 1884 2841 1681 2658 
Q 1478 2475 1428 2131 
L 2881 2131 
z
" transform="scale(0.015625)"/>
      <path id="DejaVuSans-Bold-55" d="M 3138 2547 
Q 2991 2616 2845 2648 
Q 2700 2681 2553 2681 
Q 2122 2681 1889 2404 
Q 1656 2128 1656 1613 
L 1656 0 
L 538 0 
L 538 3500 
L 1656 3500 
L 1656 2925 
Q 1872 3269 2151 3426 
Q 2431 3584 2822 3584 
Q 2878 3584 2943 3579 
Q 3009 3575 3134 3559 
L 3138 2547 
z
" transform="scale(0.015625)"/>
      <path id="DejaVuSans-Bold-52" d="M 2203 2784 
Q 1831 2784 1636 2517 
Q 1441 2250 1441 1747 
Q 1441 1244 1636 976 
Q 1831 709 2203 709 
Q 2569 709 2762 976 
Q 2956 1244 2956 1747 
Q 2956 2250 2762 2517 
Q 2569 2784 2203 2784 
z
M 2203 3584 
Q 3106 3584 3614 3096 
Q 4122 2609 4122 1747 
Q 4122 884 3614 396 
Q 3106 -91 2203 -91 
Q 1297 -91 786 396 
Q 275 884 275 1747 
Q 275 2609 786 3096 
Q 1297 3584 2203 3584 
z
" transform="scale(0.015625)"/>
      <path id="DejaVuSans-Bold-51" d="M 4056 2131 
L 4056 0 
L 2931 0 
L 2931 347 
L 2931 1631 
Q 2931 2084 2911 2256 
Q 2891 2428 2841 2509 
Q 2775 2619 2662 2680 
Q 2550 2741 2406 2741 
Q 2056 2741 1856 2470 
Q 1656 2200 1656 1722 
L 1656 0 
L 538 0 
L 538 3500 
L 1656 3500 
L 1656 2988 
Q 1909 3294 2193 3439 
Q 2478 3584 2822 3584 
Q 3428 3584 3742 3212 
Q 4056 2841 4056 2131 
z
" transform="scale(0.015625)"/>
      <path id="DejaVuSans-Bold-3" transform="scale(0.015625)"/>
      <path id="DejaVuSans-Bold-24" d="M 3419 850 
L 1538 850 
L 1241 0 
L 31 0 
L 1759 4666 
L 3194 4666 
L 4922 0 
L 3713 0 
L 3419 850 
z
M 1838 1716 
L 3116 1716 
L 2478 3572 
L 1838 1716 
z
" transform="scale(0.015625)"/>
      <path id="DejaVuSans-Bold-46" d="M 3366 3391 
L 3366 2478 
Q 3138 2634 2908 2709 
Q 2678 2784 2431 2784 
Q 1963 2784 1702 2511 
Q 1441 2238 1441 1747 
Q 1441 1256 1702 982 
Q 1963 709 2431 709 
Q 2694 709 2930 787 
Q 3166 866 3366 1019 
L 3366 103 
Q 3103 6 2833 -42 
Q 2563 -91 2291 -91 
Q 1344 -91 809 395 
Q 275 881 275 1747 
Q 275 2613 809 3098 
Q 1344 3584 2291 3584 
Q 2566 3584 2833 3536 
Q 3100 3488 3366 3391 
z
" transform="scale(0.015625)"/>
      <path id="DejaVuSans-Bold-4b" d="M 4056 2131 
L 4056 0 
L 2931 0 
L 2931 347 
L 2931 1625 
Q 2931 2084 2911 2256 
Q 2891 2428 2841 2509 
Q 2775 2619 2662 2680 
Q 2550 2741 2406 2741 
Q 2056 2741 1856 2470 
Q 1656 2200 1656 1722 
L 1656 0 
L 538 0 
L 538 4863 
L 1656 4863 
L 1656 2988 
Q 1909 3294 2193 3439 
Q 2478 3584 2822 3584 
Q 3428 3584 3742 3212 
Q 4056 2841 4056 2131 
z
" transform="scale(0.015625)"/>
      <path id="DejaVuSans-Bold-4c" d="M 538 3500 
L 1656 3500 
L 1656 0 
L 538 0 
L 538 3500 
z
M 538 4863 
L 1656 4863 
L 1656 3950 
L 538 3950 
L 538 4863 
z
" transform="scale(0.015625)"/>
      <path id="DejaVuSans-Bold-57" d="M 1759 4494 
L 1759 3500 
L 2913 3500 
L 2913 2700 
L 1759 2700 
L 1759 1216 
Q 1759 972 1856 886 
Q 1953 800 2241 800 
L 2816 800 
L 2816 0 
L 1856 0 
Q 1194 0 917 276 
Q 641 553 641 1216 
L 641 2700 
L 84 2700 
L 84 3500 
L 641 3500 
L 641 4494 
L 1759 4494 
z
" transform="scale(0.015625)"/>
      <path id="DejaVuSans-Bold-58" d="M 500 1363 
L 500 3500 
L 1625 3500 
L 1625 3150 
Q 1625 2866 1622 2436 
Q 1619 2006 1619 1863 
Q 1619 1441 1641 1255 
Q 1663 1069 1716 984 
Q 1784 875 1895 815 
Q 2006 756 2150 756 
Q 2500 756 2700 1025 
Q 2900 1294 2900 1772 
L 2900 3500 
L 4019 3500 
L 4019 0 
L 2900 0 
L 2900 506 
Q 2647 200 2364 54 
Q 2081 -91 1741 -91 
Q 1134 -91 817 281 
Q 500 653 500 1363 
z
" transform="scale(0.015625)"/>
     </defs>
     <use xlink:href="#DejaVuSans-Bold-2b"/>
     <use xlink:href="#DejaVuSans-Bold-48" transform="translate(83.6875 0)"/>
     <use xlink:href="#DejaVuSans-Bold-55" transform="translate(151.515625 0)"/>
     <use xlink:href="#DejaVuSans-Bold-52" transform="translate(200.828125 0)"/>
     <use xlink:href="#DejaVuSans-Bold-51" transform="translate(269.53125 0)"/>
     <use xlink:href="#DejaVuSans-Bold-3" transform="translate(340.71875 0)"/>
     <use xlink:href="#DejaVuSans-Bold-24" transform="translate(375.53125 0)"/>
     <use xlink:href="#DejaVuSans-Bold-55" transform="translate(452.921875 0)"/>
     <use xlink:href="#DejaVuSans-Bold-46" transform="translate(502.234375 0)"/>
     <use xlink:href="#DejaVuSans-Bold-4b" transform="translate(561.515625 0)"/>
     <use xlink:href="#DejaVuSans-Bold-4c" transform="translate(632.703125 0)"/>
     <use xlink:href="#DejaVuSans-Bold-57" transform="translate(666.984375 0)"/>
     <use xlink:href="#DejaVuSans-Bold-48" transform="translate(714.78125 0)"/>
     <use xlink:href="#DejaVuSans-Bold-46" transform="translate(782.609375 0)"/>
     <use xlink:href="#DejaVuSans-Bold-57" transform="translate(841.890625 0)"/>
     <use xlink:href="#DejaVuSans-Bold-58" transform="translate(889.6875 0)"/>
     <use xlink:href="#DejaVuSans-Bold-55" transform="translate(960.875 0)"/>
     <use xlink:href="#DejaVuSans-Bold-48" transform="translate(1010.1875 0)"/>
    </g>
   </g>
   <g id="text_15">
    <!-- Genesis loop builds the app; the maintenance loop watches and tunes it in production. -->
    <g style="fill: #64748b" transform="translate(22.44 58.291252) scale(0.095 -0.095)">
     <defs>
      <path id="DejaVuSans-1e" d="M 750 3309 
L 1409 3309 
L 1409 2516 
L 750 2516 
L 750 3309 
z
M 750 794 
L 1409 794 
L 1409 256 
L 897 -744 
L 494 -744 
L 750 256 
L 750 794 
z
" transform="scale(0.015625)"/>
      <path id="DejaVuSans-5a" d="M 269 3500 
L 844 3500 
L 1563 769 
L 2278 3500 
L 2956 3500 
L 3675 769 
L 4391 3500 
L 4966 3500 
L 4050 0 
L 3372 0 
L 2619 2869 
L 1863 0 
L 1184 0 
L 269 3500 
z
" transform="scale(0.015625)"/>
     </defs>
     <use xlink:href="#DejaVuSans-2a"/>
     <use xlink:href="#DejaVuSans-48" transform="translate(77.484375 0)"/>
     <use xlink:href="#DejaVuSans-51" transform="translate(139.015625 0)"/>
     <use xlink:href="#DejaVuSans-48" transform="translate(202.390625 0)"/>
     <use xlink:href="#DejaVuSans-56" transform="translate(263.921875 0)"/>
     <use xlink:href="#DejaVuSans-4c" transform="translate(316.015625 0)"/>
     <use xlink:href="#DejaVuSans-56" transform="translate(343.796875 0)"/>
     <use xlink:href="#DejaVuSans-3" transform="translate(395.890625 0)"/>
     <use xlink:href="#DejaVuSans-4f" transform="translate(427.671875 0)"/>
     <use xlink:href="#DejaVuSans-52" transform="translate(455.453125 0)"/>
     <use xlink:href="#DejaVuSans-52" transform="translate(516.640625 0)"/>
     <use xlink:href="#DejaVuSans-53" transform="translate(577.828125 0)"/>
     <use xlink:href="#DejaVuSans-3" transform="translate(641.3125 0)"/>
     <use xlink:href="#DejaVuSans-45" transform="translate(673.09375 0)"/>
     <use xlink:href="#DejaVuSans-58" transform="translate(736.578125 0)"/>
     <use xlink:href="#DejaVuSans-4c" transform="translate(799.953125 0)"/>
     <use xlink:href="#DejaVuSans-4f" transform="translate(827.734375 0)"/>
     <use xlink:href="#DejaVuSans-47" transform="translate(855.515625 0)"/>
     <use xlink:href="#DejaVuSans-56" transform="translate(919 0)"/>
     <use xlink:href="#DejaVuSans-3" transform="translate(971.09375 0)"/>
     <use xlink:href="#DejaVuSans-57" transform="translate(1002.875 0)"/>
     <use xlink:href="#DejaVuSans-4b" transform="translate(1042.078125 0)"/>
     <use xlink:href="#DejaVuSans-48" transform="translate(1105.453125 0)"/>
     <use xlink:href="#DejaVuSans-3" transform="translate(1166.984375 0)"/>
     <use xlink:href="#DejaVuSans-44" transform="translate(1198.765625 0)"/>
     <use xlink:href="#DejaVuSans-53" transform="translate(1260.046875 0)"/>
     <use xlink:href="#DejaVuSans-53" transform="translate(1323.53125 0)"/>
     <use xlink:href="#DejaVuSans-1e" transform="translate(1387.015625 0)"/>
     <use xlink:href="#DejaVuSans-3" transform="translate(1420.703125 0)"/>
     <use xlink:href="#DejaVuSans-57" transform="translate(1452.484375 0)"/>
     <use xlink:href="#DejaVuSans-4b" transform="translate(1491.6875 0)"/>
     <use xlink:href="#DejaVuSans-48" transform="translate(1555.0625 0)"/>
     <use xlink:href="#DejaVuSans-3" transform="translate(1616.59375 0)"/>
     <use xlink:href="#DejaVuSans-50" transform="translate(1648.375 0)"/>
     <use xlink:href="#DejaVuSans-44" transform="translate(1745.78125 0)"/>
     <use xlink:href="#DejaVuSans-4c" transform="translate(1807.0625 0)"/>
     <use xlink:href="#DejaVuSans-51" transform="translate(1834.84375 0)"/>
     <use xlink:href="#DejaVuSans-57" transform="translate(1898.21875 0)"/>
     <use xlink:href="#DejaVuSans-48" transform="translate(1937.421875 0)"/>
     <use xlink:href="#DejaVuSans-51" transform="translate(1998.953125 0)"/>
     <use xlink:href="#DejaVuSans-44" transform="translate(2062.328125 0)"/>
     <use xlink:href="#DejaVuSans-51" transform="translate(2123.609375 0)"/>
     <use xlink:href="#DejaVuSans-46" transform="translate(2186.984375 0)"/>
     <use xlink:href="#DejaVuSans-48" transform="translate(2241.96875 0)"/>
     <use xlink:href="#DejaVuSans-3" transform="translate(2303.5 0)"/>
     <use xlink:href="#DejaVuSans-4f" transform="translate(2335.28125 0)"/>
     <use xlink:href="#DejaVuSans-52" transform="translate(2363.0625 0)"/>
     <use xlink:href="#DejaVuSans-52" transform="translate(2424.25 0)"/>
     <use xlink:href="#DejaVuSans-53" transform="translate(2485.4375 0)"/>
     <use xlink:href="#DejaVuSans-3" transform="translate(2548.921875 0)"/>
     <use xlink:href="#DejaVuSans-5a" transform="translate(2580.703125 0)"/>
     <use xlink:href="#DejaVuSans-44" transform="translate(2662.484375 0)"/>
     <use xlink:href="#DejaVuSans-57" transform="translate(2723.765625 0)"/>
     <use xlink:href="#DejaVuSans-46" transform="translate(2762.96875 0)"/>
     <use xlink:href="#DejaVuSans-4b" transform="translate(2817.953125 0)"/>
     <use xlink:href="#DejaVuSans-48" transform="translate(2881.328125 0)"/>
     <use xlink:href="#DejaVuSans-56" transform="translate(2942.859375 0)"/>
     <use xlink:href="#DejaVuSans-3" transform="translate(2994.953125 0)"/>
     <use xlink:href="#DejaVuSans-44" transform="translate(3026.734375 0)"/>
     <use xlink:href="#DejaVuSans-51" transform="translate(3088.015625 0)"/>
     <use xlink:href="#DejaVuSans-47" transform="translate(3151.390625 0)"/>
     <use xlink:href="#DejaVuSans-3" transform="translate(3214.875 0)"/>
     <use xlink:href="#DejaVuSans-57" transform="translate(3246.65625 0)"/>
     <use xlink:href="#DejaVuSans-58" transform="translate(3285.859375 0)"/>
     <use xlink:href="#DejaVuSans-51" transform="translate(3349.234375 0)"/>
     <use xlink:href="#DejaVuSans-48" transform="translate(3412.609375 0)"/>
     <use xlink:href="#DejaVuSans-56" transform="translate(3474.140625 0)"/>
     <use xlink:href="#DejaVuSans-3" transform="translate(3526.234375 0)"/>
     <use xlink:href="#DejaVuSans-4c" transform="translate(3558.015625 0)"/>
     <use xlink:href="#DejaVuSans-57" transform="translate(3585.796875 0)"/>
     <use xlink:href="#DejaVuSans-3" transform="translate(3625 0)"/>
     <use xlink:href="#DejaVuSans-4c" transform="translate(3656.78125 0)"/>
     <use xlink:href="#DejaVuSans-51" transform="translate(3684.5625 0)"/>
     <use xlink:href="#DejaVuSans-3" transform="translate(3747.9375 0)"/>
     <use xlink:href="#DejaVuSans-53" transform="translate(3779.71875 0)"/>
     <use xlink:href="#DejaVuSans-55" transform="translate(3843.203125 0)"/>
     <use xlink:href="#DejaVuSans-52" transform="translate(3882.109375 0)"/>
     <use xlink:href="#DejaVuSans-47" transform="translate(3943.296875 0)"/>
     <use xlink:href="#DejaVuSans-58" transform="translate(4006.78125 0)"/>
     <use xlink:href="#DejaVuSans-46" transform="translate(4070.15625 0)"/>
     <use xlink:href="#DejaVuSans-57" transform="translate(4125.140625 0)"/>
     <use xlink:href="#DejaVuSans-4c" transform="translate(4164.34375 0)"/>
     <use xlink:href="#DejaVuSans-52" transform="translate(4192.125 0)"/>
     <use xlink:href="#DejaVuSans-51" transform="translate(4253.3125 0)"/>
     <use xlink:href="#DejaVuSans-11" transform="translate(4316.6875 0)"/>
    </g>
   </g>
   <g id="legend_1">
    <g id="line2d_1">
     <path d="M 15.75 529.032417 
L 25.25 529.032417 
L 34.75 529.032417 
" style="fill: none; stroke: #2563eb; stroke-width: 2.2; stroke-linecap: square"/>
    </g>
    <g id="text_16">
     <!-- Genesis loop (build &amp; deploy) -->
     <g transform="translate(42.35 532.357417) scale(0.095 -0.095)">
      <defs>
       <path id="DejaVuSans-9" d="M 1556 2509 
Q 1272 2256 1139 2004 
Q 1006 1753 1006 1478 
Q 1006 1022 1337 719 
Q 1669 416 2169 416 
Q 2466 416 2725 514 
Q 2984 613 3213 813 
L 1556 2509 
z
M 1997 2859 
L 3584 1234 
Q 3769 1513 3872 1830 
Q 3975 2147 3994 2503 
L 4575 2503 
Q 4538 2091 4375 1687 
Q 4213 1284 3922 891 
L 4794 0 
L 4006 0 
L 3559 459 
Q 3234 181 2878 45 
Q 2522 -91 2113 -91 
Q 1359 -91 881 339 
Q 403 769 403 1441 
Q 403 1841 612 2192 
Q 822 2544 1241 2853 
Q 1091 3050 1012 3245 
Q 934 3441 934 3628 
Q 934 4134 1281 4442 
Q 1628 4750 2203 4750 
Q 2463 4750 2720 4694 
Q 2978 4638 3244 4525 
L 3244 3956 
Q 2972 4103 2725 4179 
Q 2478 4256 2266 4256 
Q 1938 4256 1733 4082 
Q 1528 3909 1528 3634 
Q 1528 3475 1620 3314 
Q 1713 3153 1997 2859 
z
" transform="scale(0.015625)"/>
      </defs>
      <use xlink:href="#DejaVuSans-2a"/>
      <use xlink:href="#DejaVuSans-48" transform="translate(77.484375 0)"/>
      <use xlink:href="#DejaVuSans-51" transform="translate(139.015625 0)"/>
      <use xlink:href="#DejaVuSans-48" transform="translate(202.390625 0)"/>
      <use xlink:href="#DejaVuSans-56" transform="translate(263.921875 0)"/>
      <use xlink:href="#DejaVuSans-4c" transform="translate(316.015625 0)"/>
      <use xlink:href="#DejaVuSans-56" transform="translate(343.796875 0)"/>
      <use xlink:href="#DejaVuSans-3" transform="translate(395.890625 0)"/>
      <use xlink:href="#DejaVuSans-4f" transform="translate(427.671875 0)"/>
      <use xlink:href="#DejaVuSans-52" transform="translate(455.453125 0)"/>
      <use xlink:href="#DejaVuSans-52" transform="translate(516.640625 0)"/>
      <use xlink:href="#DejaVuSans-53" transform="translate(577.828125 0)"/>
      <use xlink:href="#DejaVuSans-3" transform="translate(641.3125 0)"/>
      <use xlink:href="#DejaVuSans-b" transform="translate(673.09375 0)"/>
      <use xlink:href="#DejaVuSans-45" transform="translate(712.109375 0)"/>
      <use xlink:href="#DejaVuSans-58" transform="translate(775.59375 0)"/>
      <use xlink:href="#DejaVuSans-4c" transform="translate(838.96875 0)"/>
      <use xlink:href="#DejaVuSans-4f" transform="translate(866.75 0)"/>
      <use xlink:href="#DejaVuSans-47" transform="translate(894.53125 0)"/>
      <use xlink:href="#DejaVuSans-3" transform="translate(958.015625 0)"/>
      <use xlink:href="#DejaVuSans-9" transform="translate(989.796875 0)"/>
      <use xlink:href="#DejaVuSans-3" transform="translate(1067.78125 0)"/>
      <use xlink:href="#DejaVuSans-47" transform="translate(1099.5625 0)"/>
      <use xlink:href="#DejaVuSans-48" transform="translate(1163.046875 0)"/>
      <use xlink:href="#DejaVuSans-53" transform="translate(1224.578125 0)"/>
      <use xlink:href="#DejaVuSans-4f" transform="translate(1288.0625 0)"/>
      <use xlink:href="#DejaVuSans-52" transform="translate(1315.84375 0)"/>
      <use xlink:href="#DejaVuSans-5c" transform="translate(1377.03125 0)"/>
      <use xlink:href="#DejaVuSans-c" transform="translate(1436.21875 0)"/>
     </g>
    </g>
    <g id="line2d_2">
     <path d="M 15.75 543.283159 
L 25.25 543.283159 
L 34.75 543.283159 
" style="fill: none; stroke: #d97706; stroke-width: 2.2; stroke-linecap: square"/>
    </g>
    <g id="text_17">
     <!-- Maintenance loop (observe, tune, re-apply) -->
     <g transform="translate(42.35 546.608159) scale(0.095 -0.095)">
      <defs>
       <path id="DejaVuSans-10" d="M 313 2009 
L 1997 2009 
L 1997 1497 
L 313 1497 
L 313 2009 
z
" transform="scale(0.015625)"/>
      </defs>
      <use xlink:href="#DejaVuSans-30"/>
      <use xlink:href="#DejaVuSans-44" transform="translate(86.28125 0)"/>
      <use xlink:href="#DejaVuSans-4c" transform="translate(147.5625 0)"/>
      <use xlink:href="#DejaVuSans-51" transform="translate(175.34375 0)"/>
      <use xlink:href="#DejaVuSans-57" transform="translate(238.71875 0)"/>
      <use xlink:href="#DejaVuSans-48" transform="translate(277.921875 0)"/>
      <use xlink:href="#DejaVuSans-51" transform="translate(339.453125 0)"/>
      <use xlink:href="#DejaVuSans-44" transform="translate(402.828125 0)"/>
      <use xlink:href="#DejaVuSans-51" transform="translate(464.109375 0)"/>
      <use xlink:href="#DejaVuSans-46" transform="translate(527.484375 0)"/>
      <use xlink:href="#DejaVuSans-48" transform="translate(582.46875 0)"/>
      <use xlink:href="#DejaVuSans-3" transform="translate(644 0)"/>
      <use xlink:href="#DejaVuSans-4f" transform="translate(675.78125 0)"/>
      <use xlink:href="#DejaVuSans-52" transform="translate(703.5625 0)"/>
      <use xlink:href="#DejaVuSans-52" transform="translate(764.75 0)"/>
      <use xlink:href="#DejaVuSans-53" transform="translate(825.9375 0)"/>
      <use xlink:href="#DejaVuSans-3" transform="translate(889.421875 0)"/>
      <use xlink:href="#DejaVuSans-b" transform="translate(921.203125 0)"/>
      <use xlink:href="#DejaVuSans-52" transform="translate(960.21875 0)"/>
      <use xlink:href="#DejaVuSans-45" transform="translate(1021.40625 0)"/>
      <use xlink:href="#DejaVuSans-56" transform="translate(1084.890625 0)"/>
      <use xlink:href="#DejaVuSans-48" transform="translate(1136.984375 0)"/>
      <use xlink:href="#DejaVuSans-55" transform="translate(1198.515625 0)"/>
      <use xlink:href="#DejaVuSans-59" transform="translate(1239.625 0)"/>
      <use xlink:href="#DejaVuSans-48" transform="translate(1298.8125 0)"/>
      <use xlink:href="#DejaVuSans-f" transform="translate(1360.34375 0)"/>
      <use xlink:href="#DejaVuSans-3" transform="translate(1392.125 0)"/>
      <use xlink:href="#DejaVuSans-57" transform="translate(1423.90625 0)"/>
      <use xlink:href="#DejaVuSans-58" transform="translate(1463.109375 0)"/>
      <use xlink:href="#DejaVuSans-51" transform="translate(1526.484375 0)"/>
      <use xlink:href="#DejaVuSans-48" transform="translate(1589.859375 0)"/>
      <use xlink:href="#DejaVuSans-f" transform="translate(1651.390625 0)"/>
      <use xlink:href="#DejaVuSans-3" transform="translate(1683.171875 0)"/>
      <use xlink:href="#DejaVuSans-55" transform="translate(1714.953125 0)"/>
      <use xlink:href="#DejaVuSans-48" transform="translate(1753.859375 0)"/>
      <use xlink:href="#DejaVuSans-10" transform="translate(1815.390625 0)"/>
      <use xlink:href="#DejaVuSans-44" transform="translate(1851.46875 0)"/>
      <use xlink:href="#DejaVuSans-53" transform="translate(1912.75 0)"/>
      <use xlink:href="#DejaVuSans-53" transform="translate(1976.234375 0)"/>
      <use xlink:href="#DejaVuSans-4f" transform="translate(2039.71875 0)"/>
      <use xlink:href="#DejaVuSans-5c" transform="translate(2067.5 0)"/>
      <use xlink:href="#DejaVuSans-c" transform="translate(2126.6875 0)"/>
     </g>
    </g>
    <g id="line2d_3">
     <path d="M 15.75 557.533901 
L 25.25 557.533901 
L 34.75 557.533901 
" style="fill: none; stroke-dasharray: 5.55,2.4; stroke-dashoffset: 0; stroke: #94a3b8; stroke-width: 1.5"/>
    </g>
    <g id="text_18">
     <!-- Storage / audit / LLM calls -->
     <g transform="translate(42.35 560.858901) scale(0.095 -0.095)">
      <defs>
       <path id="DejaVuSans-12" d="M 1625 4666 
L 2156 4666 
L 531 -594 
L 0 -594 
L 1625 4666 
z
" transform="scale(0.015625)"/>
      </defs>
      <use xlink:href="#DejaVuSans-36"/>
      <use xlink:href="#DejaVuSans-57" transform="translate(63.484375 0)"/>
      <use xlink:href="#DejaVuSans-52" transform="translate(102.6875 0)"/>
      <use xlink:href="#DejaVuSans-55" transform="translate(163.875 0)"/>
      <use xlink:href="#DejaVuSans-44" transform="translate(204.984375 0)"/>
      <use xlink:href="#DejaVuSans-4a" transform="translate(266.265625 0)"/>
      <use xlink:href="#DejaVuSans-48" transform="translate(329.75 0)"/>
      <use xlink:href="#DejaVuSans-3" transform="translate(391.28125 0)"/>
      <use xlink:href="#DejaVuSans-12" transform="translate(423.0625 0)"/>
      <use xlink:href="#DejaVuSans-3" transform="translate(456.75 0)"/>
      <use xlink:href="#DejaVuSans-44" transform="translate(488.53125 0)"/>
      <use xlink:href="#DejaVuSans-58" transform="translate(549.8125 0)"/>
      <use xlink:href="#DejaVuSans-47" transform="translate(613.1875 0)"/>
      <use xlink:href="#DejaVuSans-4c" transform="translate(676.671875 0)"/>
      <use xlink:href="#DejaVuSans-57" transform="translate(704.453125 0)"/>
      <use xlink:href="#DejaVuSans-3" transform="translate(743.65625 0)"/>
      <use xlink:href="#DejaVuSans-12" transform="translate(775.4375 0)"/>
      <use xlink:href="#DejaVuSans-3" transform="translate(809.125 0)"/>
      <use xlink:href="#DejaVuSans-2f" transform="translate(840.90625 0)"/>
      <use xlink:href="#DejaVuSans-2f" transform="translate(896.625 0)"/>
      <use xlink:href="#DejaVuSans-30" transform="translate(952.34375 0)"/>
      <use xlink:href="#DejaVuSans-3" transform="translate(1038.625 0)"/>
      <use xlink:href="#DejaVuSans-46" transform="translate(1070.40625 0)"/>
      <use xlink:href="#DejaVuSans-44" transform="translate(1125.390625 0)"/>
      <use xlink:href="#DejaVuSans-4f" transform="translate(1186.671875 0)"/>
      <use xlink:href="#DejaVuSans-4f" transform="translate(1214.453125 0)"/>
      <use xlink:href="#DejaVuSans-56" transform="translate(1242.234375 0)"/>
     </g>
    </g>
   </g>
  </g>
 </g>
 <defs>
  <clipPath id="p3a3dd55189">
   <rect x="7.2" y="7.2" width="914.4" height="532.5388"/>
  </clipPath>
 </defs>
</svg>
